<svg id="Layer_1" data-name="Layer 1" xmlns="http://www.w3.org/2000/svg" xmlns:xlink="http://www.w3.org/1999/xlink" viewBox="0 0 640 320"><defs><style>.cls-1,.cls-6{fill:none;}.cls-2{font-size:20.13px;fill:#808284;font-family:Helvetica-Light, Helvetica;font-weight:300;letter-spacing:-0.01em;}.cls-3{font-size:39.17px;fill:#284e80;font-family:FiraCode-Regular, Fira Code;}.cls-4{fill:#221e1f;}.cls-5{fill:#4165af;font-family:FiraCode-Retina, Fira Code;}.cls-6{stroke:#e84433;stroke-miterlimit:10;stroke-width:2px;}.cls-7{clip-path:url(#clip-path);}.cls-8{fill:#90bc3e;}.cls-9{fill:url(#linear-gradient);}.cls-10{isolation:isolate;font-size:11px;fill:#fff;font-family:Verdana;}.cls-11{letter-spacing:-0.02em;}.cls-12,.cls-13,.cls-19,.cls-25{font-family:KozGoPr6N-Regular-83pv-RKSJ-H, Kozuka Gothic Pr6N;}.cls-12{letter-spacing:-0.25em;}.cls-13{letter-spacing:-0.01em;}.cls-14{letter-spacing:-0.14em;}.cls-15{clip-path:url(#clip-path-2);}.cls-16{fill:#eaa748;}.cls-17{fill:url(#linear-gradient-2);}.cls-18{letter-spacing:-0.03em;}.cls-19{letter-spacing:-0.02em;}.cls-20{letter-spacing:-0.02em;}.cls-21{clip-path:url(#clip-path-3);}.cls-22{fill:#e15d44;}.cls-23{fill:url(#linear-gradient-3);}.cls-24{letter-spacing:-0.04em;}.cls-25{letter-spacing:-0.03em;}</style><clipPath id="clip-path"><rect class="cls-1" x="168.2" y="221.55" width="89" height="20" rx="3"/></clipPath><linearGradient id="linear-gradient" x1="-256.19" y1="421.64" x2="-256.19" y2="420.64" gradientTransform="matrix(89, 0, 0, -20, 23014, 8654.41)" gradientUnits="userSpaceOnUse"><stop offset="0" stop-color="#bbb" stop-opacity="0.1"/><stop offset="1" stop-color="#000101" stop-opacity="0.1"/></linearGradient><clipPath id="clip-path-2"><rect class="cls-1" x="261.59" y="221.55" width="111" height="20" rx="3"/></clipPath><linearGradient id="linear-gradient-2" x1="-256.31" y1="421.64" x2="-256.31" y2="420.64" gradientTransform="matrix(111, 0, 0, -20, 28767.5, 8654.41)" xlink:href="#linear-gradient"/><clipPath id="clip-path-3"><rect class="cls-1" x="376.8" y="221.55" width="93" height="20" rx="3"/></clipPath><linearGradient id="linear-gradient-3" x1="-254.16" y1="421.64" x2="-254.16" y2="420.64" gradientTransform="matrix(93, 0, 0, -20, 24060.09, 8654.41)" xlink:href="#linear-gradient"/></defs><text class="cls-2" transform="translate(109.62 177.83)">Collection of TypeScript type challenges with OJ</text><text class="cls-3" transform="translate(117.11 115.49)">Type<tspan class="cls-4" x="96.42" y="0">&lt;</tspan><tspan class="cls-5" x="120.52" y="0">Challenge</tspan><tspan class="cls-4" x="337.46" y="0">[]&gt;</tspan></text><path class="cls-6" d="M241.17,127.87c4.3,0,4.3,6,8.61,6s4.31-6,8.61-6,4.31,6,8.62,6,4.3-6,8.61-6,4.31,6,8.61,6,4.31-6,8.62-6,4.3,6,8.61,6,4.3-6,8.61-6,4.3,6,8.61,6,4.3-6,8.61-6,4.31,6,8.61,6,4.31-6,8.61-6,4.31,6,8.62,6,4.3-6,8.61-6,4.31,6,8.61,6,4.31-6,8.62-6,4.3,6,8.61,6,4.31-6,8.62-6,4.31,6,8.61,6,4.31-6,8.62-6,4.31,6,8.62,6,4.31-6,8.61-6,4.31,6,8.62,6,4.31-6,8.62-6,4.3,6,8.61,6,4.31-6,8.62-6,4.31,6,8.61,6,4.31-6,8.62-6,4.31,6,8.62,6,4.31-6,8.63-6,4.31,6,8.62,6"/><g class="cls-7"><rect class="cls-8" x="168.2" y="221.55" width="89" height="20"/><rect class="cls-9" x="168.2" y="221.55" width="89" height="20"/></g><text class="cls-10" transform="translate(173.4 235.55)">4<tspan class="cls-11" x="6.99" y="0"> </tspan><tspan class="cls-12" x="7.91" y="0">・</tspan><tspan class="cls-13" x="16.16" y="0"> </tspan><tspan x="18.59" y="0">Pick&lt;</tspan><tspan class="cls-14" x="49.49" y="0">T</tspan><tspan x="54.71" y="0">,</tspan><tspan class="cls-11" x="58.71" y="0"> </tspan><tspan x="62.38" y="0">K&gt;</tspan></text><g class="cls-15"><rect class="cls-16" x="261.59" y="221.55" width="111" height="20"/><rect class="cls-17" x="261.59" y="221.55" width="111" height="20"/></g><text class="cls-10" transform="translate(266.66 235.55)">9<tspan class="cls-18" x="6.99" y="0"> </tspan><tspan class="cls-12" x="7.82" y="0">・</tspan><tspan class="cls-19" x="16.07" y="0"> </tspan><tspan x="18.43" y="0">Deep</tspan><tspan class="cls-18" x="46.87" y="0"> </tspan><tspan class="cls-20" x="50.44" y="0">R</tspan><tspan x="57.82" y="0">eadonly</tspan></text><g class="cls-21"><rect class="cls-22" x="376.8" y="221.55" width="93" height="20"/><rect class="cls-23" x="376.8" y="221.55" width="93" height="20"/></g><text class="cls-10" transform="translate(381.69 235.55)">17<tspan class="cls-24" x="13.99" y="0"> </tspan><tspan class="cls-12" x="14.67" y="0">・</tspan><tspan class="cls-25" x="22.92" y="0"> </tspan><tspan x="25.2" y="0">Currying</tspan><tspan class="cls-24" x="72.57" y="0"> </tspan><tspan x="76.01" y="0">1</tspan></text></svg>