<svg xmlns="http://www.w3.org/2000/svg" viewBox="0 0 497.63 103.79">
  <defs>
    <style>
      @keyframes blink {
        0%    { opacity: 0 }
        40%   { opacity: 0 }
        40.1% { opacity: 1 }
        99.9% { opacity: 1 }
        100%  { opacity: 0 }
      }
      .a{fill:#294f80;}
      .b{fill:#231f20;}
      .c{fill:#4265af;}
      .d{fill:none;stroke:#e84534;stroke-miterlimit:10;stroke-width:2px;}
      .e{fill:#58595b; animation: blink 1.2s linear infinite;}
    </style>
  </defs>
  <path class="a" d="M65,58.51l-3.2,0,.11-22.71-8,0V33l19.22.09-.35,2.76-7.73,0Z"/>
  <path class="a" d="M87.65,58.75c-1.39,4-3.57,7.16-8.73,7.65l-.47-2.48c4-.67,5.19-2.31,6.24-5.32h-1L76.94,39.09l3.33,0,5.5,17.13,5.6-17.08,3.22,0Z"/>
  <path class="a" d="M116.29,49c0,5.9-2.49,10.15-7.56,10.13a6.44,6.44,0,0,1-5.13-2.28l0,9.28-3.11.37.13-27.31h2.65l.24,2.72a7,7,0,0,1,5.83-3.09C114.49,38.87,116.32,42.91,116.29,49Zm-12.63-4.58,0,9.65a5.28,5.28,0,0,0,4.44,2.47c3.24,0,4.88-2.38,4.9-7.58s-1.36-7.63-4.42-7.64C106.38,41.33,104.73,42.87,103.66,44.44Z"/>
  <path class="a" d="M130.83,56.67A8.67,8.67,0,0,0,136,54.94L137.49,57a11.09,11.09,0,0,1-6.71,2.26c-5.7,0-8.89-4.13-8.86-10.18,0-5.9,3.38-10.15,8.56-10.13,4.92,0,7.89,3.67,7.86,9.58,0,.67,0,1.28-.08,1.7l-13.09-.06C125.31,54.68,127.82,56.66,130.83,56.67Zm-5.63-8.9,10.15,0c0-4.17-1.93-6.3-4.85-6.32S125.48,43.48,125.2,47.77Z"/>
  <path class="b" d="M160.23,39.4l-13.09,7.94,13,8.15-1.67,2.26-14-8.85V45.72L158.75,37Z"/>
  <path class="c" d="M184.23,35.69l-2,2.32a8,8,0,0,0-5.29-1.92c-4,0-7.51,2.63-7.54,10.18,0,7.36,3.2,10.17,7.4,10.19a8.59,8.59,0,0,0,5.87-2.14l1.82,2.36a10.79,10.79,0,0,1-7.8,2.85c-6.32,0-11.15-4.7-11.1-13.28s5.09-13.16,11.14-13.13A10.81,10.81,0,0,1,184.23,35.69Z"/>
  <path class="c" d="M192.72,42.18a7.83,7.83,0,0,1,6.16-3c3.75,0,5.46,2.17,5.44,5.8l-.07,14.18-3.55,0,.07-13.87c0-2.33-.94-3.33-3.11-3.34s-3.91,1.57-4.95,3.08l-.07,14.09h-3.55l.13-27.3,3.56-.37Z"/>
  <path class="c" d="M227.2,57.32l-.85,2.43A4.16,4.16,0,0,1,222.6,57a7.58,7.58,0,0,1-6.18,2.7c-3.92,0-6.33-2.45-6.31-6.08,0-4,3.3-6.29,9.24-6.26l2.83,0V45.92c0-2.68-1.67-3.73-4.5-3.74a16.17,16.17,0,0,0-5.12,1l-.9-2.59a18.6,18.6,0,0,1,6.57-1.24c5,0,7.5,2.47,7.48,6.43l0,9.08C225.67,56.39,226.15,57,227.2,57.32Zm-5-2.89,0-4.72h-2.59c-4.12,0-5.68,1.47-5.7,3.87s1.17,3.48,3.56,3.5A5.72,5.72,0,0,0,222.15,54.43Z"/>
  <path class="c" d="M241.51,54.36c0,1.86,1.27,2.57,3.1,2.58a8.43,8.43,0,0,0,3.2-.65l.91,2.54a10.66,10.66,0,0,1-4.79,1c-3.66,0-6-2.19-6-5.78l.1-19.35-5.94,0,0-2.69,9.48,0Z"/>
  <path class="c" d="M263.71,54.47c0,1.86,1.26,2.57,3.09,2.58A8.44,8.44,0,0,0,270,56.4l.91,2.54a10.7,10.7,0,0,1-4.8,1c-3.66,0-6-2.19-6-5.78l.1-19.34-5.94,0v-2.7l9.49,0Z"/>
  <path class="c" d="M286.3,57.2a8.66,8.66,0,0,0,5.17-1.71l1.6,2.25a11.19,11.19,0,0,1-6.9,2.33c-5.86,0-9.11-4.17-9.08-10.23,0-5.89,3.4-10.21,8.74-10.19,5,0,8.1,3.7,8.07,9.68,0,.66,0,1.31-.08,1.77l-13-.06C281,55.33,283.36,57.19,286.3,57.2Zm-5.51-8.75,9.7,0c-.06-4-1.79-6.06-4.63-6.07S281.07,44.33,280.79,48.45Z"/>
  <path class="c" d="M300.17,40.19h3.05l.25,2.63a8.37,8.37,0,0,1,6.39-3.06c3.75,0,5.46,2.17,5.45,5.8l-.08,14.18h-3.55l.06-12c0-3.71-.38-5.2-3.08-5.21-2.12,0-3.93,1.57-5,3.06l-.07,14.12-3.55,0Z"/>
  <path class="c" d="M339.48,41.27a18.91,18.91,0,0,1-5.7.58c2.29,1,3.45,2.66,3.44,4.94,0,3.84-2.85,6.6-7.52,6.58a9.32,9.32,0,0,1-2.81-.36,2.19,2.19,0,0,0-.95,1.77c0,.87.52,1.55,2.52,1.56l3.46,0c4,0,7,2.35,7,5.38,0,3.86-3.45,6-9.53,6-6.44,0-8.43-2-8.41-6l3.2,0c0,2.18,1,3.2,5.22,3.22s5.92-1,5.93-3c0-1.74-1.7-2.67-4.13-2.68l-3.42,0c-3.51,0-5.07-1.76-5.06-3.72a4.22,4.22,0,0,1,2.16-3.45,5.59,5.59,0,0,1-3.28-5.44c0-4,3.28-6.8,8-6.78,4.83,0,6.64-.69,8.94-1.75Zm-14.3,5.4c0,2.55,1.42,4.34,4.38,4.35,2.61,0,4-1.57,4.05-4.34s-1.36-4.28-4.08-4.3A4,4,0,0,0,325.18,46.67Z"/>
  <path class="c" d="M352.89,57.54a8.67,8.67,0,0,0,5.17-1.72l1.6,2.25a11.13,11.13,0,0,1-6.9,2.33c-5.86,0-9.11-4.17-9.08-10.23,0-5.88,3.4-10.21,8.74-10.19,5,0,8.1,3.71,8.07,9.68,0,.66,0,1.31-.08,1.77l-13-.06C347.55,55.66,350,57.52,352.89,57.54Zm-5.51-8.76,9.7,0c-.06-4-1.79-6.06-4.64-6.07S347.66,44.66,347.38,48.78Z"/>
  <path class="b" d="M370.08,29.86l9.27.05v2.68l-6.33,0-.15,29.11,6.33,0v2.64l-9.27,0Z"/>
  <path class="b" d="M400.69,64.45l-9.27,0,0-2.62,6.32,0,.15-29.13-6.33,0,0-2.68,9.26.05Z"/>
  <path class="b" d="M426.56,47.12l0,3.18L412.46,59l-1.67-2.3,13.1-8-13-8.11,1.51-2.34Z"/>
  <path class="d" d="M166.56,70.17c4,0,3.93,6,7.9,6s4-6,8-6,3.94,6,7.9,6,4-6,8-6,3.94,6,7.91,6,4-6,8-6,3.93,6,7.89,6,4-6,8-6,3.94,6,7.9,6,4-6,8-6,3.94,6,7.9,6,4-6,8-6,3.94,6,7.9,6,4-6,8-6,3.94,6,7.91,6,4-6,8-6,3.94,6,7.9,6,4-6,8-6,3.93,6,7.9,6,4-6,8-6,3.94,6,7.91,6,4-6,8-6,3.94,6,7.91,6,4-6,8-6,3.94,6,7.9,6,4-6,8-6,3.94,6,7.9,6,4-6,8-6,3.94,6,7.91,6,4-6,8-6,3.94,6,7.91,6"/>
  <rect class="e" x="441.93" y="22.98" width="3.3" height="50.79" transform="matrix(1, 0, 0, 1, 0.25, -2.21)"/>
</svg>
