<svg xmlns="http://www.w3.org/2000/svg" viewBox="0 0 612 151.65">
  <defs>
    <style>
      @keyframes blink {
        0%    { opacity: 0 }
        40%   { opacity: 0 }
        40.1% { opacity: 1 }
        99.9% { opacity: 1 }
        100%  { opacity: 0 }
      }
      .a{fill:#294f80;}
      .b{fill:#231f20;}
      .c{fill:#4265af;}
      .d{fill:none;stroke:#e84534;stroke-miterlimit:10;stroke-width:2px;}
      .e{fill:#58595b; animation: blink 1.2s linear infinite;}
    </style>
  </defs>
  <path class="a" d="M101.34,88.32h-3.2l.11-22.71-8,0,0-2.76,19.21.1-.35,2.75-7.73,0Z"/>
  <path class="a" d="M124,88.57c-1.39,4-3.57,7.15-8.73,7.65l-.47-2.48c4-.67,5.19-2.31,6.24-5.32h-1l-6.71-19.51,3.33,0,5.5,17.13L127.7,69l3.22,0Z"/>
  <path class="a" d="M152.62,78.83c0,5.9-2.49,10.16-7.55,10.14a6.39,6.39,0,0,1-5.13-2.29L139.89,96l-3.11.37L136.92,69h2.64l.25,2.72a7,7,0,0,1,5.82-3.1C150.83,68.69,152.65,72.73,152.62,78.83ZM140,74.26,140,83.91a5.27,5.27,0,0,0,4.44,2.46c3.24,0,4.88-2.38,4.9-7.57s-1.36-7.63-4.41-7.64C142.71,71.15,141.06,72.69,140,74.26Z"/>
  <path class="a" d="M168.88,86.2l5.5,0v2.46l-14.62-.07,0-2.46,6,0,.07-14.56-5.83,0,0-2.46,8.93,0Zm-.08-24a2.26,2.26,0,0,1-4.51,0,2.26,2.26,0,0,1,4.51,0Z"/>
  <path class="a" d="M181.31,69.25H184l.22,2.7a8.54,8.54,0,0,1,6.45-3.07c3.83,0,5.47,2.17,5.45,5.76L196,88.8l-3.11,0L193,76.93c0-4-.36-5.59-3.3-5.61-2.29,0-4.24,1.72-5.27,3.23l-.07,14.19-3.11,0Z"/>
  <path class="a" d="M220.29,70.29a19.26,19.26,0,0,1-5.7.55A5.14,5.14,0,0,1,218,75.76c0,3.84-2.75,6.6-7.35,6.58a9,9,0,0,1-2.9-.38,2.35,2.35,0,0,0-1,1.88c0,.92.58,1.63,2.6,1.64h3.51c3.92,0,6.87,2.33,6.86,5.33,0,3.83-3.42,5.92-9.34,5.89-6.21,0-8.22-1.95-8.2-5.9h2.82c0,2.27,1,3.33,5.38,3.35s6.18-1,6.19-3.16c0-1.85-1.87-2.81-4.39-2.82l-3.47,0c-3.37,0-4.89-1.76-4.88-3.68a4.14,4.14,0,0,1,2.16-3.39,5.61,5.61,0,0,1-3.25-5.4c0-3.94,3.22-6.76,7.8-6.73,4.92,0,6.59-.62,8.89-1.6Zm-14.45,5.42c0,2.65,1.46,4.54,4.64,4.56,2.73,0,4.24-1.66,4.26-4.53s-1.44-4.48-4.29-4.5C207.31,71.23,205.85,73.11,205.84,75.71Z"/>
  <path class="b" d="M241,69.43l-13.1,7.95,13,8.14-1.67,2.27-14-8.85,0-3.19L239.47,67Z"/>
  <path class="c" d="M265,65.73l-2,2.32a8,8,0,0,0-5.3-1.92c-4,0-7.5,2.63-7.54,10.17,0,7.36,3.21,10.17,7.4,10.19a8.57,8.57,0,0,0,5.88-2.13l1.82,2.36a10.75,10.75,0,0,1-7.8,2.84c-6.33,0-11.15-4.69-11.11-13.27s5.1-13.17,11.15-13.14A10.84,10.84,0,0,1,265,65.73Z"/>
  <path class="c" d="M273.45,72.22a7.81,7.81,0,0,1,6.15-3c3.76,0,5.47,2.17,5.45,5.79L285,89.24l-3.55,0,.07-13.87c0-2.33-.95-3.33-3.11-3.34s-3.91,1.57-5,3.08l-.07,14.09-3.55,0L270,61.87l3.55-.37Z"/>
  <path class="c" d="M307.92,87.36l-.84,2.43a4.17,4.17,0,0,1-3.76-2.73,7.59,7.59,0,0,1-6.17,2.7c-3.92,0-6.33-2.45-6.32-6.08,0-4.05,3.31-6.29,9.25-6.26l2.83,0V76c0-2.68-1.66-3.73-4.49-3.74a16.17,16.17,0,0,0-5.13,1l-.89-2.59A18.63,18.63,0,0,1,299,69.35c5,0,7.5,2.48,7.48,6.44l-.05,9.08C306.39,86.42,306.87,87,307.92,87.36Zm-5.05-2.9,0-4.71H300.3c-4.12,0-5.68,1.46-5.69,3.87s1.16,3.48,3.55,3.49A5.67,5.67,0,0,0,302.87,84.46Z"/>
  <path class="c" d="M322.24,84.39c0,1.87,1.26,2.58,3.09,2.59a8.44,8.44,0,0,0,3.21-.65l.91,2.54a10.7,10.7,0,0,1-4.8,1c-3.66,0-6-2.19-6-5.78l.1-19.35-5.94,0V62l9.49.05Z"/>
  <path class="c" d="M344.44,84.5c0,1.87,1.26,2.58,3.09,2.59a8.39,8.39,0,0,0,3.2-.65l.91,2.54a10.66,10.66,0,0,1-4.79,1c-3.66,0-6-2.19-6-5.78L341,64.88l-5.93,0v-2.7l9.49.05Z"/>
  <path class="c" d="M367,87.24a8.63,8.63,0,0,0,5.16-1.71l1.6,2.25a11.16,11.16,0,0,1-6.89,2.33c-5.86,0-9.11-4.17-9.08-10.24,0-5.88,3.39-10.21,8.74-10.18,5,0,8.1,3.7,8.07,9.68,0,.66-.05,1.31-.09,1.77l-13-.06C361.69,85.37,364.09,87.23,367,87.24Zm-5.51-8.75,9.69.05c0-4-1.78-6.06-4.63-6.08S361.8,74.36,361.52,78.49Z"/>
  <path class="c" d="M380.89,70.22l3.05,0,.25,2.63a8.38,8.38,0,0,1,6.39-3.06c3.76,0,5.47,2.17,5.45,5.8L396,89.79l-3.55,0,.06-12c0-3.72-.38-5.2-3.08-5.21-2.13,0-3.93,1.57-5,3.06l-.07,14.11h-3.56Z"/>
  <path class="c" d="M420.21,71.31a18.91,18.91,0,0,1-5.7.58c2.29,1,3.45,2.66,3.43,4.94,0,3.84-2.84,6.6-7.52,6.58a9,9,0,0,1-2.81-.37,2.22,2.22,0,0,0-.95,1.77c0,.87.53,1.56,2.53,1.57l3.45,0c4,0,7,2.34,7,5.38,0,3.86-3.45,6-9.54,6-6.43,0-8.42-2-8.4-6l3.2,0c0,2.18,1,3.2,5.22,3.22S416,94,416,92c0-1.74-1.71-2.67-4.13-2.68l-3.42,0c-3.52,0-5.08-1.76-5.07-3.72a4.24,4.24,0,0,1,2.16-3.45,5.62,5.62,0,0,1-3.28-5.44c0-4,3.29-6.81,8-6.78s6.64-.69,8.94-1.75Zm-14.31,5.4c0,2.55,1.43,4.34,4.39,4.35,2.6,0,4-1.57,4-4.34s-1.37-4.28-4.09-4.3A4,4,0,0,0,405.9,76.71Z"/>
  <path class="c" d="M433.62,87.58a8.69,8.69,0,0,0,5.16-1.72l1.6,2.25a11.16,11.16,0,0,1-6.89,2.33c-5.86,0-9.11-4.17-9.08-10.23,0-5.89,3.39-10.21,8.74-10.19,5,0,8.1,3.7,8.07,9.68,0,.66-.05,1.31-.08,1.77l-13-.06C428.28,85.7,430.68,87.56,433.62,87.58Zm-5.51-8.76,9.69.05c-.05-4-1.78-6.06-4.63-6.07S428.39,74.7,428.11,78.82Z"/>
  <path class="b" d="M450.81,59.9l9.26.05v2.68l-6.32,0-.15,29.11,6.33,0,0,2.64-9.26,0Z"/>
  <path class="b" d="M481.41,94.49l-9.26,0V91.82l6.33,0,.14-29.13-6.32,0V60l9.26,0Z"/>
  <path class="b" d="M507.29,77.16l0,3.18-14.08,8.72-1.67-2.31,13.1-8-13-8.11,1.51-2.35Z"/>
  <path class="d" d="M244.59,100c4,0,3.94,6,7.9,6s4-6,8-6,3.94,6,7.9,6,4-6,8-6,3.93,6,7.9,6,4-6,8-6,3.93,6,7.9,6,4-6,7.95-6,3.94,6,7.91,6,4-6,7.95-6,3.94,6,7.91,6,4-6,8-6,3.93,6,7.9,6,4-6,8-6,3.93,6,7.9,6,4-6,8-6,3.94,6,7.91,6,4-6,8-6,3.94,6,7.9,6,4-6,8-6,3.93,6,7.9,6,4-6,8-6,3.93,6,7.9,6,4-6,8-6,3.94,6,7.91,6,4-6,8-6,3.94,6,7.91,6,4-6,8-6,3.94,6,7.91,6,4-6,8-6,3.94,6,7.91,6"/>
  <rect class="e" x="519.96" y="52.8" width="3.3" height="50.79" transform="matrix(1, 0, 0, 1, 0.4, -2.6)"/>
</svg>
